<?xml version="1.0" encoding="UTF-8" standalone="no"?>
<svg width="189px" height="40px" viewBox="0 0 189 40" version="1.1" xmlns="http://www.w3.org/2000/svg" xmlns:xlink="http://www.w3.org/1999/xlink" xmlns:sketch="http://www.bohemiancoding.com/sketch/ns">
    <!-- Generator: Sketch 3.1.1 (8761) - http://www.bohemiancoding.com/sketch -->
    <title>Springbank Logo</title>
    <desc>Created with Sketch.</desc>
    <defs></defs>
    <g id="Page-1" stroke="none" stroke-width="1" fill="none" fill-rule="evenodd" sketch:type="MSPage">
        <g id="Springbank-Logo" sketch:type="MSArtboardGroup">
            <g sketch:type="MSLayerGroup">
                <g id="Group" transform="translate(43.000000, 7.000000)" fill="#FFFFFF" sketch:type="MSShapeGroup">
                    <path d="M66.5486365,22.6573681 C65.7299452,23.2228266 64.9506108,23.7646936 64.1669667,24.3001713 C63.9361914,24.4578574 63.7241188,24.4586766 63.5587216,24.1873745 C63.1413256,23.5031394 62.7244175,22.8184128 62.2961252,22.1410585 C61.5676948,20.9893351 61.1268797,19.7494713 61.142899,18.3697787 C61.1541207,17.4014628 61.1943722,16.4333106 61.1961611,15.4650766 C61.201284,12.7233851 61.1952666,9.9816117 61.1850208,7.23992021 C61.1844516,7.09894468 61.140053,6.92815213 61.0541831,6.82223617 C60.3381127,5.93886596 59.6076494,5.06745532 58.8813332,4.19260426 C58.7091868,3.98519574 58.5136214,4.00100532 58.3048828,4.13125 C58.1553423,4.22455106 57.9901078,4.29770106 57.8555295,4.40894149 C57.0610703,5.06557128 56.2659607,5.72195532 55.4864637,6.39636064 C55.0419894,6.78095106 54.8380484,7.28038617 54.8545556,7.88418085 C54.9009871,9.58375106 54.9461989,11.2837309 54.9596974,12.9837926 C54.9738464,14.7684723 54.9419705,16.5534798 54.9473374,18.3382415 C54.9500208,19.2520021 54.9633567,20.1673191 55.0219856,21.0786223 C55.0688238,21.8078287 54.9473374,22.4741245 54.3393362,22.90385 C53.3236157,23.621834 52.2650416,24.2783 51.1210855,25.0283947 C51.0927061,24.7401362 51.0574962,24.565084 51.0612368,24.3908511 C51.1007564,22.5225362 51.1648336,20.6545489 51.1848374,18.7861521 C51.2011819,17.258767 51.1550756,15.7308085 51.1598733,14.2031777 C51.1624754,13.3723968 51.2432224,12.541616 51.2366358,11.7112447 C51.2205352,9.7066234 51.1044157,7.70011809 51.1676797,5.6987734 C51.2011819,4.63854894 50.9406449,3.75534255 50.3763105,2.90547553 C50.1300038,2.53464681 49.9398052,2.12613723 49.6783737,1.65168617 C50.0910533,1.59213404 50.453073,1.50661489 50.8175321,1.49440957 C51.5349849,1.47040851 52.25382,1.48859362 52.9720045,1.4863 C53.2438446,1.48539894 53.4262368,1.55584574 53.5846407,1.83361915 C54.0404992,2.63335426 54.5535231,3.40007766 55.0441036,4.17974362 C55.2322693,4.47881489 55.4450738,4.49880213 55.7106524,4.26468936 C56.8624149,3.24976383 58.0291396,2.2518766 59.1709002,1.22564681 C59.756458,0.699343617 60.5845008,0.599980851 61.2038048,1.1007266 C61.5902194,1.41323191 61.9384153,1.78414255 62.2592076,2.16676702 C63.1227856,3.19676489 63.9964467,4.22184787 64.7891982,5.30590957 C65.0058245,5.60219574 65.0136309,6.1008117 65.0089145,6.50530745 C64.9930579,7.85493723 64.8895424,9.20399362 64.8902742,10.5532138 C64.8915753,13.0220468 64.9464637,15.4907979 64.9706146,17.9597128 C64.9737859,18.2850787 64.9358113,18.6117553 64.9026343,18.9363021 C64.8219686,19.7246511 65.2020405,20.3590819 65.5708094,20.9968713 C65.8823317,21.5355436 66.2019856,22.0695468 66.5486365,22.6573681" id="Fill-2"></path>
                    <path d="M114.988852,1.04125638 C116.057103,0.997759574 117.125191,0.945088298 118.193848,0.922234043 C118.33111,0.919367021 118.517405,1.03855319 118.603194,1.15790319 C119.30105,2.12769362 120.024357,3.08470532 120.428824,4.34701383 C120.819467,4.01820745 121.166036,3.7292117 121.509679,3.43677553 C122.543533,2.55709149 123.556407,1.65062128 124.615794,0.803293617 C125.478966,0.112914894 125.939215,0.177709574 126.736358,1.05591915 C127.814448,2.24376702 128.87042,3.45242128 129.911267,4.67344468 C130.071135,4.86102979 130.174244,5.16190319 130.176358,5.41157979 C130.194247,7.4570766 130.191157,9.50298298 130.176358,11.5486436 C130.159607,13.8674085 130.086747,16.186583 130.12212,18.5043649 C130.13139,19.1139755 130.388918,19.7469319 130.645552,20.3175511 C130.876978,20.8319766 131.252008,21.2839011 131.584998,21.747867 C131.797884,22.0443989 131.776579,22.2585245 131.466033,22.4585606 C130.829245,22.8685447 130.2049,23.2981883 129.56486,23.7029298 C129.189261,23.940483 129.012317,23.8996074 128.766254,23.5105936 C128.111658,22.4755989 127.404045,21.465834 126.854592,20.3758745 C126.567139,19.8056649 126.464111,19.0891553 126.456467,18.4366213 C126.421014,15.4104394 126.445165,12.3835202 126.455166,9.35692872 C126.457118,8.74387766 126.469397,8.12943404 126.513064,7.51834894 C126.571205,6.70517979 126.385885,5.97810319 125.866437,5.3456383 C125.400821,4.77870532 124.947564,4.20079574 124.464953,3.64885319 C124.124482,3.25942979 123.798811,3.25041915 123.409225,3.59995 C122.470836,4.44195319 121.526674,5.27887766 120.623251,6.1579883 C120.42362,6.35220851 120.291806,6.70976702 120.283756,6.99646915 C120.219597,9.28648191 120.164465,11.5774777 120.162351,13.8682277 C120.160318,16.1314543 120.223988,18.3946809 120.257572,20.6579894 C120.263833,21.0803426 120.285301,21.5042521 120.256515,21.9244755 C120.246594,22.0697106 120.139745,22.2612277 120.018665,22.3373266 C119.032625,22.9576681 118.032354,23.5550734 117.037288,24.160916 C116.769514,24.3239266 116.539064,24.177217 116.522069,23.8024564 C116.497511,23.2573128 116.487022,22.7111043 116.488404,22.1653872 C116.494828,19.560084 116.497511,16.9546989 116.520686,14.3494777 C116.540121,12.1702138 116.587284,9.99119574 116.61973,7.81201383 C116.634692,6.807 116.677708,5.80083936 116.644938,4.7973 C116.619648,4.02263085 116.315444,3.31300213 115.907725,2.65899362 C115.600675,2.16643936 115.271019,1.68830213 114.951447,1.20369362 C114.963888,1.14954787 114.976329,1.09540213 114.988852,1.04125638" id="Fill-3"></path>
                    <path d="M131.02538,0.937470213 C132.210157,0.937470213 133.303047,0.932473404 134.395692,0.946562766 C134.488962,0.947791489 134.603048,1.06026064 134.668915,1.14979362 C134.942869,1.52234255 135.181532,1.92257872 135.47053,2.28226702 C136.365414,3.3959 136.318901,4.69842872 136.283935,6.02004362 C136.24718,7.40710851 136.269136,8.79613936 136.285968,10.1840234 C136.293531,10.8125564 136.509588,11.0098074 137.117589,11.1144947 C137.96718,11.2606309 138.793759,11.163316 139.596513,10.8839862 C140.598572,10.5353564 141.270407,9.8671766 141.350015,8.75698404 C141.424989,7.71109468 141.452311,6.66119149 141.4776,5.61243511 C141.508175,4.34414681 141.516225,3.07520319 141.530862,1.80650532 C141.53875,1.12030426 141.623319,0.976789362 142.288485,0.9473 C143.192071,0.907243617 144.098746,0.937306383 145.037786,0.937306383 C145.037786,1.30436702 145.040225,1.63939894 145.037379,1.97443085 C145.022742,3.70725851 145.046405,5.44164255 144.980539,7.17250426 C144.908737,9.06006915 144.063536,10.531916 142.432171,11.5117 C142.164722,11.6722532 141.886295,11.8147032 141.622912,11.9814819 C141.31513,12.1764394 141.319766,12.3407606 141.613236,12.5645521 C142.118616,12.9498798 142.656685,13.3008851 143.116203,13.7357713 C143.744614,14.3304734 144.102649,15.0803223 144.186649,15.9679521 C144.353429,17.7323989 144.526632,19.4970915 144.750821,21.2547394 C144.836203,21.924967 145.022905,22.5926553 145.24937,23.2306085 C145.416231,23.7008 145.72263,24.1207777 146.013824,24.6481457 C145.576099,24.5905596 145.137642,24.5745043 144.720571,24.4710457 C142.254739,23.8594691 141.000437,21.7939032 140.75104,19.7265351 C140.61573,18.6051202 140.616055,17.4674862 140.496764,16.34345 C140.387882,15.3173021 140.019682,14.3572596 139.533899,13.4534926 C139.39737,13.1995564 139.168627,12.9693755 138.930859,12.8023511 C138.304805,12.3623862 137.625571,12.0417713 136.834365,12.0297298 C136.545042,12.0253064 136.402413,12.1301574 136.393793,12.4234128 C136.377368,12.9792872 136.336953,13.5351617 136.339718,14.0908723 C136.351021,16.3414021 136.318007,18.5945532 136.422254,20.8410691 C136.463969,21.7408223 136.207579,22.266634 135.433856,22.6590064 C134.748523,23.0065713 134.110516,23.4490755 133.454051,23.8537351 C133.024051,24.1188936 132.827428,24.0638468 132.742534,23.5753064 C132.666341,23.1363245 132.641458,22.6830894 132.643491,22.2364074 C132.650403,20.7106606 132.694883,19.1850777 132.69659,17.6594128 C132.701388,13.3212 132.677644,8.98298723 132.699843,4.6449383 C132.704641,3.70660319 132.25667,2.98386809 131.826019,2.2337734 C131.590284,1.82313404 131.329177,1.42732128 131.02538,0.937470213" id="Fill-4"></path>
                    <path d="M75.3865677,11.9957351 C77.1370613,11.9957351 78.8415299,11.975584 80.5451853,12.0050734 C81.2858132,12.017934 81.9139807,12.7160128 82.0026154,13.4556223 C82.0906808,14.190317 81.9161762,14.8767638 81.5996123,15.5096383 C80.9242001,16.8602511 80.1849546,18.1783436 79.4941736,19.5213383 C78.8729179,20.7293372 78.2812613,21.9528181 77.6770821,23.1696638 C77.6590299,23.206116 77.6476456,23.2459266 77.6313011,23.2833617 C76.9396256,24.8649745 75.7141906,25.1172723 74.2918079,24.3535798 C73.5822428,23.9725936 72.9633453,23.3656862 72.4047844,22.7653319 C71.1414561,21.4075926 70.0205938,19.9165777 69.2184096,18.2415819 C68.5513729,16.8488649 68.0380238,15.3756255 67.5338635,13.9110691 C66.9081354,12.0929681 66.3955182,10.235466 66.3371331,8.29506596 C66.3130635,7.49615 66.3263181,6.67683723 66.4741509,5.89594255 C66.774289,4.31064362 67.7305673,3.1577734 69.0824489,2.32527234 C70.4426248,1.48769255 71.9046899,1.1596234 73.5064561,1.26865213 C74.7726305,1.35474468 76.0497012,1.28560851 77.321893,1.27610638 C78.49309,1.26734149 79.6642871,1.23072553 80.8354028,1.23645957 C81.5082943,1.23973617 81.6333585,1.50800745 81.3466377,2.12081277 C81.0245443,2.80922553 80.7263578,3.50967979 80.4392303,4.2137383 C80.2487065,4.68098085 79.9662954,4.90665638 79.463924,4.90436277 C76.2804766,4.88986383 73.0971104,4.87118723 69.9135817,4.85775319 C68.9963351,4.85390319 68.4602175,5.47948723 68.6839183,6.37989574 C68.9194913,7.32806064 69.2258094,8.25992447 69.5336725,9.1879383 C69.8330787,10.0905585 70.1450076,10.9911309 70.5030427,11.8713883 C71.0394856,13.1903 71.5751967,14.5131436 72.1945008,15.7934734 C73.0523052,17.5669309 73.973211,19.3100798 74.9003782,21.0482319 C75.105295,21.4324128 75.4069781,21.793084 75.741025,22.0706936 C76.1055654,22.3736968 76.4496955,22.3020213 76.7024262,21.9108777 C77.1795083,21.1724149 77.6438238,20.4219926 78.0564221,19.6458489 C78.5787973,18.6631979 79.0549036,17.6549074 79.530278,16.6477638 C79.8008169,16.0743596 79.7129141,15.9033213 79.1024735,15.7508777 C78.8555976,15.6891957 78.5943287,15.6655223 78.3391585,15.662 C77.5398203,15.6511053 76.7403196,15.6584777 75.9408188,15.6578223 C75.4166547,15.6573309 75.3018362,15.5410936 75.3103744,15.0224085 C75.3257432,14.0821894 75.341112,13.1419702 75.358351,12.2017511 C75.3594894,12.1360553 75.3759153,12.0706053 75.3865677,11.9957351" id="Fill-5"></path>
                    <path d="M10.7562992,8.10764468 C10.3994024,7.30070106 10.0716982,6.49441277 9.69073185,5.71458298 C9.22210666,4.75535957 8.64142776,3.86854894 7.8142795,3.17341915 C7.20058623,2.65776489 6.48614221,2.3503383 5.69412254,2.35238617 C4.67254728,2.35508936 3.88044629,2.84559574 3.36856089,3.73986064 C2.9511649,4.46898511 2.98751324,5.21654043 3.45906581,5.90306915 C3.85824697,6.48425532 4.27596823,7.06232872 4.75435136,7.57683617 C6.64600983,9.61111064 8.57369138,11.6113085 10.4699849,13.6412415 C11.5923922,14.8428511 12.6926815,16.0631372 13.5871596,17.45995 C14.0113048,18.1222319 14.21427,18.8067947 14.1510061,19.5835117 C14.0448884,20.8871872 13.8267984,22.1576053 13.0023336,23.22725 C12.2437349,24.2113755 11.196545,24.777817 10.0605579,25.1841149 C8.41593797,25.7722638 6.78075076,25.83755 5.10018911,25.2170447 C3.00662254,24.4439319 1.6309966,22.9113043 0.485576778,21.0939404 C0.428736762,21.0036702 0.434428896,20.8310755 0.479722012,20.7272894 C0.554126324,20.5565787 0.660975794,20.3848032 0.795879349,20.2588181 C1.52983926,19.5733543 2.26656392,18.8901021 3.02272315,18.2298681 C3.46614032,17.8427383 3.61315998,17.9422649 3.89345688,18.4602947 C4.863559,20.253166 5.82512292,22.0639766 7.40590961,23.4145074 C8.49741679,24.3469447 10.3022296,24.2239904 11.2938805,23.1898968 C11.9663654,22.4886234 12.1604671,21.5951777 11.6772863,20.7605468 C11.2102874,19.953767 10.686042,19.1590287 10.0676324,18.4672574 C8.57434191,16.7969309 6.98623676,15.2129426 5.48408283,13.5503979 C4.12943646,12.0511096 2.78967095,10.5325713 1.53593797,8.9481734 C0.71993003,7.91694681 0.472647504,6.66504149 0.817265507,5.35743404 C1.27710855,3.61289255 2.3312916,2.32895851 3.93460287,1.54273936 C4.40802572,1.31067447 4.95959342,1.19714043 5.48798601,1.13037979 C6.98347201,0.941484043 8.47172088,0.998005319 9.8758888,1.61728191 C11.5373411,2.35009255 12.6528366,3.6621234 13.4800662,5.24512872 C13.5452005,5.36955745 13.5464202,5.63447021 13.463559,5.71433723 C12.6830049,6.46607021 11.8794384,7.19355638 11.0772542,7.92218936 C10.9901645,8.00131915 10.8699792,8.0434234 10.7562992,8.10764468" id="Fill-6"></path>
                    <path d="M45.1353196,24.8587489 C45.0812443,24.4542532 44.9956997,24.0866191 44.9904955,23.7177564 C44.980087,22.9819149 45.0322107,22.2452543 45.0253801,21.5092489 C45.01302,20.1893543 44.9528461,18.8695415 44.9554482,17.5498106 C44.9587821,15.7819234 45.0221275,14.0141181 45.0245669,12.2462309 C45.0279822,9.87856277 44.975208,7.51064894 44.9986271,5.14330851 C45.0040753,4.58874468 44.8380276,4.14468404 44.5785477,3.69759255 C44.2714977,3.16858617 43.9622523,2.6407266 43.6663427,2.10541277 C43.5219251,1.84410426 43.5818551,1.64324894 43.9098846,1.62981489 C44.7045877,1.59745851 45.5072598,1.64128298 46.2929368,1.54290319 C47.1700132,1.43305532 47.569601,1.85688298 48.0149697,2.55315957 C48.8955427,3.92998511 48.9271747,5.43721915 48.9481543,6.96181915 C48.9839334,9.56532021 48.9902761,12.1692309 48.9998714,14.7730596 C49.008003,16.9519138 49.0149149,19.1309319 48.9985703,21.3097043 C48.9915772,22.2388649 48.6672882,22.9955128 47.7715091,23.4462085 C46.9656657,23.8516053 46.1965772,24.3307255 45.4096804,24.7746223 C45.3549546,24.8054223 45.2874622,24.8131223 45.1353196,24.8587489" id="Fill-7"></path>
                    <path d="M95.85125,13.148933 C94.7442927,12.2093691 93.4377856,11.8463223 92.0449206,11.6725809 C91.8670821,11.6503819 91.7037992,11.5089968 91.533767,11.4227404 C91.6315091,11.2688223 91.701197,11.0832851 91.8314656,10.965983 C92.6591017,10.2206394 93.517882,9.5097 94.3322636,8.75026702 C95.3353801,7.81488085 96.1115431,6.71509149 96.6432697,5.4319766 C97.1571067,4.19211277 96.8847787,3.10993511 96.1017852,2.11065532 C95.8269365,1.75989574 95.5132999,1.42789468 95.1698203,1.14618936 C94.3139675,0.444178723 93.3494762,0.242504255 92.3378215,0.754881915 C91.8482167,1.0028383 91.385121,1.33369255 90.9711403,1.69764043 C89.9642833,2.58281277 88.9937746,3.51000745 88.0062708,4.41762447 C87.9286138,4.48897234 87.834531,4.58464894 87.7445953,4.58858085 C87.6459588,4.59292234 87.4634852,4.51600426 87.4542965,4.45383085 C87.2935344,3.37378298 86.5305446,2.5967383 86.0747674,1.66741383 C85.9827988,1.47991064 85.7169762,1.27422234 85.5200284,1.26201702 C84.7384172,1.21376915 83.9512765,1.21335957 83.168039,1.24424149 C82.438958,1.2729117 82.2554274,1.66471064 82.6374508,2.29332553 C82.9411668,2.79325213 83.2774092,3.27540319 83.5483548,3.79245 C83.7012292,4.08406702 83.8188937,4.42696277 83.834913,4.75265638 C83.8857356,5.78609468 83.8854917,6.82223617 83.8960628,7.8574766 C83.8998846,8.23838085 83.8623979,8.61994043 83.8719932,9.00043511 C83.9004539,10.1302872 83.9705484,11.2597298 83.9738824,12.3895 C83.9798998,14.3542287 83.9468854,16.3191213 83.9327364,18.2839319 C83.9289145,18.8149043 83.9443646,19.3461223 83.933143,19.8768489 C83.9126513,20.8450011 83.8726437,21.8127436 83.8529652,22.7808957 C83.8406865,23.3868202 83.8506884,23.9932362 83.8506884,24.6017819 L87.4332356,24.6017819 L87.4332356,22.4565947 C87.6610836,22.6297628 87.7789921,22.718067 87.8955182,22.8080915 C88.8171558,23.5202596 89.8013256,24.0835883 90.9647163,24.3181106 C92.6288521,24.6535521 94.23257,24.53625 95.6347863,23.5392638 C97.403576,22.2816245 97.9815715,20.3791511 98.1393249,18.3060489 C98.301632,16.1718383 97.4455352,14.5022489 95.85125,13.148933 L95.85125,13.148933 Z M87.8088351,6.4736883 C88.5750775,5.74161489 89.3380673,5.00569149 90.1213048,4.2923766 C90.5644781,3.88878191 91.0783151,3.6192 91.7103858,3.71626915 C92.2378026,3.79720106 92.6157602,4.14050638 92.8440148,4.56908511 C93.3040204,5.43271383 93.484461,6.38775957 92.9637935,7.26760745 C92.5545291,7.95921489 92.0253234,8.60355745 91.4496048,9.16516596 C90.4490904,10.1412638 89.3726267,11.0383957 88.3250303,11.9652628 C88.1933793,12.0817457 88.0492871,12.1863511 87.9015356,12.2816181 C87.5378896,12.5160585 87.4172163,12.4640426 87.4105484,12.0365287 C87.3967247,11.1522574 87.4064013,10.2675766 87.40632,9.38314149 C87.4061573,8.92261596 87.4169724,8.46176277 87.4115242,8.00148298 C87.4096539,7.8481383 87.406076,7.69479362 87.3995707,7.54161277 C87.3815185,7.11295213 87.5080465,6.76112766 87.8088351,6.4736883 L87.8088351,6.4736883 Z M93.6984039,20.3218926 C93.2845859,21.4171766 92.4523147,22.0518532 91.3180352,22.1407309 C90.0884531,22.2370628 88.9360401,21.8783574 87.9591887,21.099183 C87.5046312,20.7366277 87.4238843,20.1650255 87.4107924,19.6093968 C87.395261,18.9551426 87.4071331,18.300233 87.4071331,17.6456511 C87.4114429,17.6455691 87.4156713,17.6455691 87.4198998,17.6455691 C87.4198998,16.949866 87.4185987,16.2540809 87.4203877,15.5583777 C87.4214448,15.1462638 87.5347995,14.7700287 87.84868,14.4929926 C88.5298657,13.8918191 89.2204028,13.3012128 89.9120783,12.7122447 C90.2411649,12.4319319 90.6234323,12.4769851 90.9822806,12.613783 C91.919531,12.9710957 92.691303,13.5667809 93.236284,14.4132894 C94.4456997,16.2919255 94.4687122,18.2831947 93.6984039,20.3218926 L93.6984039,20.3218926 Z" id="Fill-8"></path>
                    <path d="M43.8967114,24.7896128 C43.8558907,24.6894309 43.8042549,24.5928532 43.748472,24.4999617 C43.1221747,23.4573489 42.7471445,22.3225 42.5939448,21.1214638 C42.4818098,20.2430904 42.4499338,19.3546415 42.3608113,18.4729096 C42.2249319,17.1275394 41.7032073,16.0130872 40.4891566,15.2990351 C40.1917833,15.1241468 39.924253,14.8702926 39.7057564,14.6010383 C39.6233831,14.4995457 39.6498922,14.1890064 39.745764,14.0822713 C40.0343551,13.7608372 40.364011,13.4693021 40.7088729,13.2079936 C42.058559,12.18545 42.7381997,10.7300681 43.1480333,9.16426489 C43.5487595,7.63319362 43.3871029,6.07132234 42.9445802,4.55540532 C42.4609928,2.89884043 41.4250246,1.76636702 39.8003272,1.13767021 C38.6826362,0.705241489 37.7430276,0.973676596 36.8957129,1.6897766 C35.8915393,2.53833298 34.9300567,3.43865957 33.9619062,4.32964787 C33.7196653,4.5525383 33.5158056,4.53058511 33.3578082,4.28508617 C32.9239864,3.61133617 32.5142341,2.92185851 32.0946426,2.23877021 C31.8859039,1.89898723 31.6756203,1.59942447 31.1947163,1.61785532 C30.3036536,1.65201383 29.4103952,1.62449043 28.5188446,1.65176809 C28.0698979,1.66552979 27.938247,1.91610745 28.1528404,2.30446596 C28.4424887,2.82863936 28.7333567,3.35428723 29.0620367,3.85364043 C29.3665658,4.31629574 29.4950454,4.81278191 29.498298,5.35555 C29.5089505,7.16939149 29.5176513,8.98331489 29.5321256,10.7972383 C29.5441604,12.3099606 29.575955,13.8227649 29.575711,15.3354872 C29.5754671,16.891133 29.5487954,18.4468606 29.5302553,20.0025064 C29.5154557,21.242616 29.4877269,22.4826436 29.4817908,23.7228351 C29.4794327,24.20515 29.5211479,24.6877106 29.5453801,25.2287585 C29.7785949,25.1166989 29.9535061,25.0480543 30.113211,24.9533606 C30.9522315,24.4556457 31.7697031,23.9175468 32.630191,23.4614447 C33.1972088,23.160817 33.3303234,22.7239649 33.2906411,22.1489223 C33.2643759,21.7681819 33.2522598,21.3853936 33.2562443,21.0037521 C33.2706373,19.6418351 33.2948695,18.28 33.314792,16.9181649 C33.3256884,16.1716745 33.3208094,15.4244468 33.3586214,14.6793489 C33.3658585,14.5376362 33.5365412,14.288533 33.6378612,14.2853383 C34.7344913,14.2510979 35.8159966,14.3461191 36.7030749,15.0973606 C37.600643,15.8574489 37.9614429,16.9239809 38.1988862,18.023934 C38.4599924,19.2334894 38.5970102,20.4715511 38.8848695,21.6736521 C39.1715091,22.8707564 39.7532451,23.8959213 40.930053,24.4750596 C41.7541112,24.8806202 42.6377742,24.9536883 43.5212746,25.0522319 C43.6362557,25.0650926 43.7574981,25.0214319 43.9095594,24.9989872 C43.9046804,24.8960202 43.915902,24.83655 43.8967114,24.7896128 L43.8967114,24.7896128 Z M38.7329709,10.8472883 C38.3415961,11.4818011 37.9725832,12.1230309 37.2913162,12.5084404 C37.1961762,12.5622585 37.1087613,12.6093596 37.0234607,12.6506447 C36.5626418,12.8732074 36.1627288,12.9231755 34.9330654,12.9234213 C34.5945461,12.9238309 34.255539,12.9127723 33.9175076,12.9268617 C33.5564637,12.9418521 33.3837481,12.7578713 33.3711441,12.4198085 C33.3453669,11.7257436 33.3169875,11.0307777 33.3253631,10.3366309 C33.3360968,9.44089149 33.4067606,8.54547979 33.403264,7.65015 C33.4010685,7.09943617 33.5902099,6.65750532 33.9812595,6.31043191 C34.9756751,5.42779894 35.9779784,4.55352128 36.9941868,3.69644574 C37.5418514,3.23452766 37.7322939,3.29219574 38.2587349,3.80424574 C40.3362821,5.82459468 39.9649111,8.85003936 38.7329709,10.8472883 L38.7329709,10.8472883 Z" id="Fill-9"></path>
                    <path d="M115.677112,21.1681553 C115.270613,20.3380298 114.836384,19.521666 114.426713,18.6930149 C113.14826,16.106634 111.872084,13.5191064 110.60225,10.928384 C109.404626,8.48469894 108.224484,6.03224894 107.019459,3.59225 C106.573846,2.68995745 105.956169,1.88629043 105.166345,1.28503511 C104.032553,0.421979787 102.695552,0.140356383 101.285042,0.272075532 C99.6727042,0.422717021 98.3562765,1.08065745 97.4968457,2.5351383 C97.2142719,3.01335745 97.2703801,3.44447553 97.5265261,3.88165532 C97.910989,4.53779362 98.3066736,5.18737872 98.7054482,5.83483404 C98.9282545,6.1964883 99.1669989,6.54831277 99.4515242,6.98606596 C99.6780711,6.12014362 99.9073828,5.36685426 100.06725,4.59890213 C100.234843,3.79367872 100.570516,3.07602234 101.032392,2.41226596 C101.338873,1.97180957 101.811239,1.92634681 102.198304,2.31339468 C102.445668,2.56085957 102.688722,2.83429149 102.853712,3.13991596 C103.467243,4.27673085 104.076708,5.41764149 104.632992,6.58353617 C105.282871,7.94569894 105.874365,9.33604043 106.49375,10.7130298 C106.614261,10.9808915 106.524244,11.1109723 106.245492,11.0995043 C105.96178,11.0877904 105.677823,11.0610043 105.396225,11.0238968 C104.015639,10.8424553 102.639688,10.6153872 101.254711,10.4820298 C100.005369,10.3616968 99.1494346,10.8542511 98.8089637,11.8107713 C98.4800397,12.735017 98.331719,13.6997287 98.5232186,14.6705021 C98.8843438,16.5005628 99.5517057,18.2296223 100.423334,19.8688213 C100.912857,20.7896266 101.453691,21.6950319 102.075272,22.5286798 C102.637899,23.283116 103.296967,23.9655489 104.240804,24.3046766 C105.58862,24.7890394 106.54937,24.422634 107.275117,23.1699915 C108.093321,21.7579426 108.967388,20.3781681 109.837309,18.9972468 C110.126388,18.5382777 110.290078,18.5392606 110.55216,19.0229681 C111.095921,20.0263436 111.597642,21.0528191 112.113349,22.0715128 C112.473986,22.7838447 112.829257,23.4988798 113.23348,24.3055777 C113.569397,23.9922532 113.852377,23.7300436 114.133325,23.4657862 C114.55625,23.0679255 114.962343,22.6499138 115.404703,22.2753989 C115.799493,21.9410223 115.91049,21.6447362 115.677112,21.1681553 L115.677112,21.1681553 Z M109.297451,17.0812574 C108.863222,17.8777979 108.393134,18.654433 107.939145,19.4401606 C107.668281,19.9090415 107.464584,20.435017 106.940257,20.6925574 C106.666059,20.8272255 106.376899,20.930766 106.094488,21.0483138 C105.649119,20.9914649 105.32857,20.788234 105.112676,20.4560691 C104.817579,20.0020149 104.526386,19.5381309 104.300083,19.0472968 C103.628168,17.5897032 102.98455,16.1187574 102.339957,14.6485489 C102.198385,14.3255585 102.09121,13.9863489 101.981271,13.650334 C101.681133,12.733133 102.174641,11.9668191 103.13222,12.0212926 C104.545577,12.101733 105.962837,12.2434457 107.299756,12.7775309 C107.452712,12.8386394 107.610628,12.9597915 107.700726,13.0968351 C108.398094,14.1583702 108.971861,15.2846181 109.336808,16.507034 C109.388932,16.6815947 109.381694,16.9266021 109.297451,17.0812574 L109.297451,17.0812574 Z" id="Fill-10"></path>
                    <path d="M26.1026154,2.36172447 C25.7749924,2.02390745 25.400938,1.71132021 24.9988294,1.47122766 C23.9298468,0.832701064 22.8911138,0.969580851 21.9840318,1.8119117 C21.2773128,2.46821383 20.5716509,3.12566277 19.8656638,3.78270213 C19.587725,4.04130745 19.317674,4.30908723 19.0297334,4.55581489 C18.8266868,4.72980213 18.6112803,4.74331809 18.4362065,4.49896596 C18.1913635,4.15705319 17.9337538,3.82316809 17.7090772,3.46814894 C17.4185344,3.00901596 17.174098,2.51932872 16.8684304,2.07141809 C16.7744289,1.93371915 16.5464183,1.81936596 16.3767927,1.81510638 C15.4153915,1.79094149 14.4528517,1.79536489 13.4910439,1.81068298 C13.3158888,1.81346809 13.0227439,1.87695213 12.9948525,1.97393936 C12.949722,2.13097021 13.0410401,2.36377234 13.1418722,2.52088511 C13.5082016,3.09207766 13.9085212,3.64115319 14.2816812,4.20808617 C14.3674697,4.33841277 14.4291074,4.50330745 14.4450454,4.6581266 C14.4910703,5.10562766 14.5288824,5.55591383 14.5327856,6.00538085 C14.544983,7.40735426 14.5335174,8.8095734 14.5430314,10.2116287 C14.5641736,13.3353713 14.5988956,16.4590319 14.6152402,19.5828564 C14.6236157,21.1932213 14.6001154,22.8036681 14.600278,24.414033 C14.6003593,24.9310798 14.7719365,25.0224968 15.2160855,24.7703628 C15.2749584,24.7369415 15.3298468,24.6964755 15.3866868,24.6595319 C16.1935874,24.13585 17.0245575,23.644934 17.7939713,23.0703011 C18.0501986,22.8789479 18.2443816,22.4888691 18.2974811,22.1617011 C18.3858718,21.6165574 18.3496861,21.0487234 18.3446445,20.4906372 C18.3322031,19.1128287 18.2905692,17.7350202 18.2949603,16.3572936 C18.2973185,15.6281691 18.3711536,14.8992085 18.4192114,14.0564681 C18.7561044,14.247084 18.9593135,14.3512798 19.1517076,14.4727596 C19.989427,15.0020117 20.8500775,15.4835074 21.8011517,15.7775 C22.7144138,16.0596968 23.6425567,16.1609436 24.5513464,15.8069074 C26.715902,14.9636755 28.0259871,13.3379106 28.5257564,11.0940979 C29.2671161,7.76581383 28.4897334,4.82310319 26.1026154,2.36172447 L26.1026154,2.36172447 Z M22.9210382,13.1866138 C22.1070632,13.8616745 21.1877023,14.0034691 20.2187387,13.6674543 C19.689289,13.483883 19.2042379,13.1706404 18.6985325,12.9171138 C18.4084777,12.7717149 18.3117114,12.5312947 18.3156959,12.2144479 C18.3255352,11.4255255 18.3189486,10.6364394 18.3189486,9.84743511 C18.3451324,9.84743511 18.3713162,9.84751702 18.3975,9.84751702 C18.3975,8.97913723 18.3935968,8.11059362 18.402379,7.24229574 C18.4034361,7.13220213 18.4388899,6.98917872 18.5124811,6.91832234 C19.2938483,6.16593404 20.0483812,5.37791277 20.8870764,4.6955617 C21.5892417,4.12428723 22.6367568,4.25141915 23.3638862,4.87954255 C24.3767606,5.75447553 24.8483945,6.88891489 24.9307678,8.21659149 C25.0540431,10.2031915 24.480764,11.8929319 22.9210382,13.1866138 L22.9210382,13.1866138 Z" id="Fill-11"></path>
                </g>
                <g id="Stroke-1-+-Fill-12" sketch:type="MSShapeGroup">
                    <path d="M-0.00725180427,0.0139148936 L32.0713177,0.0139148936 L32.0713177,39.9860851 L-0.00725180427,39.9860851 L-0.00725180427,0.0139148936 Z" id="Stroke-1" stroke="#FFFFFF" stroke-width="2"></path>
                    <path d="M26.0724408,20.9345183 C23.7342689,17.212042 19.9317992,17.3769742 19.9317992,17.3769742 C19.9317992,17.3769742 20.5222584,16.4581322 20.5458527,16.3638802 C20.5694824,16.2696282 20.0735066,15.9162275 19.8137215,16.2696282 C19.553901,16.623029 17.1448754,20.5811176 17.1448754,20.5811176 C17.1448754,20.5811176 13.9800889,19.874316 12.9172835,17.4711908 C11.8564266,15.0724831 11.6067736,11.467866 15.981564,9.69739888 C17.1630494,10.3985813 18.2086728,11.3581704 18.9398475,12.5235801 C21.1126822,15.9869076 20.6167064,16.1282679 21.2307954,15.1387458 C21.8448489,14.1492236 24.7026263,9.2722931 24.7262206,9.20161295 C24.7498503,9.1309328 24.1593911,8.73042371 24.0885374,8.80110386 C24.0176837,8.87178402 22.978508,10.5445359 22.978508,10.5445359 C22.978508,10.5445359 18.8689938,6.44508699 14.5232888,6.44508699 C10.1776192,6.44508699 5.92639756,7.85869005 4.8045356,13.6073543 L5.47764569,13.6073543 C5.47764569,13.6073543 5.72563362,10.5445359 8.77234244,8.97780425 C10.5174689,8.08037835 12.886285,8.23848985 15.0001695,9.18786566 C14.5329603,9.38372036 10.595408,11.1624217 10.1067655,15.6701899 C9.58715991,20.4633291 11.6544227,22.7486658 14.7657147,24.7041382 L14.4524351,25.2931513 L15.0103725,25.6700886 C15.0103725,25.6700886 17.1921348,21.7826801 17.3574365,21.6177834 C17.5227736,21.4528512 22.317195,21.7826801 23.8051226,24.6805664 C25.2930502,27.5784527 24.9387817,31.6531281 22.3880487,32.242742 C19.8373158,32.8323558 18.3257939,31.3716444 18.3257939,31.3716444 C18.3257939,31.3716444 19.9751971,30.5609077 22.2699711,30.0758299 L22.1282637,29.2747763 C22.1282637,29.2747763 19.5303067,29.9344695 17.6881107,30.8297397 C17.6881107,30.8297397 14.9484109,28.308826 12.1142632,26.6596107 C9.28011543,25.0104307 5.92639756,25.6229802 5.09974752,28.2381459 C4.2731329,30.8533115 6.33890776,33.1434545 9.75249701,33.4897519 C13.2361251,33.8431527 15.066524,32.6438872 15.066524,32.6438872 C15.066524,32.6438872 18.585579,34.410891 22.7895766,32.8323558 C26.9935742,31.2538206 28.4106127,24.6570299 26.0724408,20.9345183 L26.0724408,20.9345183 Z M16.8786072,9.10799709 C16.886224,9.11375752 17.6503457,9.696268 18.5194016,10.5713236 C19.323839,11.3813889 20.386609,12.6162418 20.8812387,13.8991219 L20.6828483,13.9752445 C19.7600498,11.5818024 16.7798726,9.29950496 16.7498661,9.27674595 L16.8786072,9.10799709 L16.8786072,9.10799709 Z M13.7634892,7.96107025 L13.8187905,7.75630985 C13.8695926,7.76998646 15.0714129,8.09592798 15.8090707,8.57065123 L15.6938272,8.74883589 C14.9843337,8.29220676 13.7756406,7.96432154 13.7634892,7.96107025 L13.7634892,7.96107025 Z M10.8539885,19.2679863 C10.5996238,18.5578982 10.5192757,17.9550318 10.4966379,17.5742778 C10.47191,17.1582898 10.5079037,16.9121108 10.509427,16.9018269 L10.7196499,16.9332442 L10.6145385,16.9175179 L10.7196499,16.9331382 C10.7182683,16.9426093 10.5850279,17.8953778 11.0586848,19.2093571 C11.4962418,20.4231827 12.5564965,22.2030857 15.1224984,23.789431 L15.0105496,23.9696654 C12.3857745,22.3470258 11.3014296,20.517258 10.8539885,19.2679863 Z M9.89420439,32.6909955 C7.59145936,32.2492446 5.66069621,31.1713722 5.78469017,29.4927186 C5.90868413,27.814065 7.325758,27.9200852 8.95539296,28.6268867 C10.7698498,29.4138395 11.9961855,31.3245008 14.1808529,32.242742 C14.1808529,32.242742 12.1969494,33.1327465 9.89420439,32.6909955 L9.89420439,32.6909955 Z M14.6532699,32.0111938 C14.6370089,32.0043732 13.0053546,31.3060533 10.9896733,29.3748241 C9.92807246,28.3577014 8.86891602,27.9682184 8.16735818,27.8206029 C7.41170353,27.6615725 6.90509963,27.741123 6.90006901,27.7420066 L6.8657404,27.5327226 C6.88784675,27.5291886 7.41705299,27.4460688 8.21121661,27.6131213 C8.93994685,27.7664619 10.0390648,28.1700102 11.1369073,29.2218722 C13.1215901,31.1234157 14.7199432,31.8091192 14.7358498,31.8158339 L14.6532699,32.0111938 L14.6532699,32.0111938 Z M17.1662378,32.9168893 C16.5314596,32.7578943 15.6079525,32.4410351 15.5987061,32.4378192 L15.6679656,32.2373703 C15.6771412,32.2405156 16.5921812,32.5544415 17.2179964,32.7111747 L17.1662378,32.9168893 L17.1662378,32.9168893 Z M25.0697547,26.6274512 C24.87349,25.2517681 24.3859103,24.0892209 23.6205487,23.1720046 C23.0084437,22.4385213 22.2173976,21.8582019 21.2693043,21.4471261 C19.6473924,20.7439293 18.1080605,20.7807183 18.092827,20.7813544 L18.0863793,20.5693846 C18.1509979,20.5676176 19.6821462,20.5298391 21.3468537,21.2495398 C22.3272563,21.6734086 23.1461833,22.2733771 23.7808552,23.032694 C24.5736018,23.981151 25.0780446,25.1805225 25.2801902,26.5975535 L25.0697547,26.6274512 L25.0697547,26.6274512 Z" id="Fill-12" fill="#FF4900"></path>
                </g>
            </g>
        </g>
    </g>
</svg>